<?xml version="1.0" encoding="UTF-8" standalone="no"?>
<!-- Created with Inkscape (http://www.inkscape.org/) -->

<svg
   version="1.1"
   id="svg2"
   width="793.70135"
   height="264.56668"
   viewBox="0 0 793.70135 264.56668"
   sodipodi:docname="logo_flow_vettoriale.svg"
   inkscape:version="1.2.2 (b0a8486541, 2022-12-01)"
   xmlns:inkscape="http://www.inkscape.org/namespaces/inkscape"
   xmlns:sodipodi="http://sodipodi.sourceforge.net/DTD/sodipodi-0.dtd"
   xmlns="http://www.w3.org/2000/svg"
   xmlns:svg="http://www.w3.org/2000/svg">
  <defs
     id="defs6">
    <clipPath
       clipPathUnits="userSpaceOnUse"
       id="clipPath18">
      <path
         d="M 0,198.425 H 595.276 V 0 H 0 Z"
         id="path16" />
    </clipPath>
  </defs>
  <sodipodi:namedview
     id="namedview4"
     pagecolor="#ffffff"
     bordercolor="#000000"
     borderopacity="0.25"
     inkscape:showpageshadow="2"
     inkscape:pageopacity="0.0"
     inkscape:pagecheckerboard="0"
     inkscape:deskcolor="#d1d1d1"
     showgrid="false"
     inkscape:zoom="0.89202464"
     inkscape:cx="398.53159"
     inkscape:cy="133.96491"
     inkscape:window-width="1410"
     inkscape:window-height="860"
     inkscape:window-x="0"
     inkscape:window-y="0"
     inkscape:window-maximized="1"
     inkscape:current-layer="g10">
    <inkscape:page
       x="0"
       y="0"
       id="page8"
       width="793.70135"
       height="264.56668" />
  </sodipodi:namedview>
  <g
     id="g10"
     inkscape:groupmode="layer"
     inkscape:label="Page 1"
     transform="matrix(1.3333333,0,0,-1.3333333,0,264.56667)">
    <g
       id="g12">
      <g
         id="g14"
         clip-path="url(#clipPath18)">
        <g
           id="g20"
           transform="translate(268.2754,57.7891)">
          <path
             d="M 0,0 12.632,20.519 C 90.046,22.821 130.223,44.403 131.338,45.036 97.856,13.112 41.379,2.873 0,0"
             style="fill:#1b355f;fill-opacity:1;fill-rule:nonzero;stroke:none"
             id="path22" />
        </g>
        <g
           id="g24"
           transform="translate(257.0254,57.1563)">
          <path
             d="m 0,0 12.896,20.96 c 3.481,0.015 6.885,0.076 10.228,0.164 L 10.477,0.581 C 6.859,0.329 3.354,0.139 0,0"
             style="fill:#1b355f;fill-opacity:1;fill-rule:nonzero;stroke:none"
             id="path26" />
        </g>
        <g
           id="g28"
           transform="translate(246.0747,56.8389)">
          <path
             d="m 0,0 13.138,21.341 c 3.126,-0.062 6.202,-0.073 9.216,-0.073 L 9.43,0.254 C 6.128,0.127 2.975,0.052 0,0"
             style="fill:#1b355f;fill-opacity:1;fill-rule:nonzero;stroke:none"
             id="path30" />
        </g>
        <g
           id="g32"
           transform="translate(236.9746,56.8008)">
          <path
             d="m 0,0 13.304,21.62 c 2.024,-0.076 4.023,-0.141 5.997,-0.176 L 6.1,0 C 3.963,-0.011 1.921,-0.011 0,0"
             style="fill:#1b355f;fill-opacity:1;fill-rule:nonzero;stroke:none"
             id="path34" />
        </g>
        <g
           id="g36"
           transform="translate(220.1025,57.3584)">
          <path
             d="m 0,0 13.507,21.936 c 4.175,-0.291 8.289,-0.52 12.312,-0.697 L 12.442,-0.507 C 7,-0.393 2.745,-0.19 0,0"
             style="fill:#1b355f;fill-opacity:1;fill-rule:nonzero;stroke:none"
             id="path38" />
        </g>
        <g
           id="g40"
           transform="translate(248.0591,33.8018)">
          <path
             d="m 0,0 16.827,27.301 c 92.898,3.76 133.464,40.582 134.727,41.71 C 112.312,21.529 37.416,2.624 0,0"
             style="fill:#275ca7;fill-opacity:1;fill-rule:nonzero;stroke:none"
             id="path42" />
        </g>
        <g
           id="g44"
           transform="translate(410.4629,113.9878)">
          <path
             d="m 0,0 c 0,0 -19.207,-38.944 -81.669,-64.641 l -16.796,-27.283 c 0,0 75.681,32.136 98.465,91.924"
             style="fill:#5f9fdb;fill-opacity:1;fill-rule:nonzero;stroke:none"
             id="path46" />
        </g>
        <g
           id="g48"
           transform="translate(221.5854,84.8896)">
          <path
             d="M 0,0 4.726,7.688 C 32.69,-0.193 54.338,-3.01 69.683,-3.602 69.683,-3.602 44.443,-5.123 0,0"
             style="fill:#275ca7;fill-opacity:1;fill-rule:nonzero;stroke:none"
             id="path50" />
        </g>
        <g
           id="g52"
           transform="translate(72.6777,131.9922)">
          <path
             d="M 0,0 V -10.236 H -35.482 V -35.922 H -45.72 V 0 Z M -45.72,22.986 H 0 V 12.75 h -45.72 z"
             style="fill:#275ca7;fill-opacity:1;fill-rule:nonzero;stroke:none"
             id="path54" />
        </g>
        <g
           id="g56"
           transform="translate(121.2852,106.4326)">
          <path
             d="m 0,0 v -10.362 h -41.072 v 58.907 h 10.237 V 0 Z"
             style="fill:#275ca7;fill-opacity:1;fill-rule:nonzero;stroke:none"
             id="path58" />
        </g>
        <g
           id="g60"
           transform="translate(144.9609,125.5239)">
          <path
             d="m 0,0 c 0,1.256 0.229,2.428 0.69,3.517 0.461,1.088 1.099,2.041 1.916,2.858 0.816,0.816 1.769,1.464 2.857,1.946 1.089,0.481 2.261,0.722 3.517,0.722 1.256,0 2.428,-0.241 3.517,-0.722 1.088,-0.482 2.042,-1.13 2.857,-1.946 0.817,-0.817 1.465,-1.77 1.947,-2.858 0.481,-1.089 0.723,-2.261 0.723,-3.517 0,-1.255 -0.242,-2.428 -0.723,-3.516 -0.482,-1.09 -1.13,-2.042 -1.947,-2.859 -0.815,-0.815 -1.769,-1.465 -2.857,-1.946 -1.089,-0.482 -2.261,-0.722 -3.517,-0.722 -1.256,0 -2.428,0.24 -3.517,0.722 C 4.375,-7.84 3.422,-7.19 2.606,-6.375 1.789,-5.558 1.151,-4.606 0.69,-3.516 0.229,-2.428 0,-1.255 0,0 m 8.98,19.218 c -2.637,0 -5.129,-0.504 -7.473,-1.51 -2.345,-1.007 -4.386,-2.381 -6.124,-4.121 -1.737,-1.74 -3.108,-3.785 -4.112,-6.133 -1.006,-2.348 -1.508,-4.844 -1.508,-7.485 0,-2.642 0.502,-5.127 1.508,-7.454 1.004,-2.328 2.375,-4.362 4.112,-6.102 1.738,-1.742 3.779,-3.114 6.124,-4.121 2.344,-1.006 4.836,-1.509 7.473,-1.509 2.638,0 5.128,0.503 7.473,1.509 2.345,1.007 4.386,2.379 6.124,4.121 1.736,1.74 3.109,3.774 4.113,6.102 1.005,2.327 1.507,4.812 1.507,7.454 0,2.641 -0.502,5.137 -1.507,7.485 -1.004,2.348 -2.377,4.393 -4.113,6.133 -1.738,1.74 -3.779,3.114 -6.124,4.121 -2.345,1.006 -4.835,1.51 -7.473,1.51 m 0,-48.672 c -4.062,0 -7.881,0.775 -11.461,2.324 -3.58,1.548 -6.699,3.652 -9.357,6.312 -2.66,2.658 -4.763,5.777 -6.312,9.357 -1.549,3.58 -2.323,7.4 -2.323,11.461 0,4.061 0.774,7.882 2.323,11.461 1.549,3.581 3.652,6.699 6.312,9.358 2.658,2.659 5.777,4.762 9.357,6.311 3.58,1.549 7.399,2.324 11.461,2.324 4.061,0 7.882,-0.775 11.462,-2.324 3.579,-1.549 6.698,-3.652 9.356,-6.311 2.659,-2.659 4.763,-5.777 6.312,-9.358 1.549,-3.579 2.324,-7.4 2.324,-11.461 0,-4.061 -0.775,-7.881 -2.324,-11.461 -1.549,-3.58 -3.653,-6.699 -6.312,-9.357 -2.658,-2.66 -5.777,-4.764 -9.356,-6.312 -3.58,-1.549 -7.401,-2.324 -11.462,-2.324"
             style="fill:#275ca7;fill-opacity:1;fill-rule:nonzero;stroke:none"
             id="path62" />
        </g>
        <g
           id="g64"
           transform="translate(206.8833,154.978)">
          <path
             d="M 0,0 H 10.864 L 25.245,-42.768 39.627,0 H 50.366 L 30.583,-58.908 V -58.97 H 19.845 v 0.062 z M -11.494,0 8.352,-58.908 H -2.513 L -22.232,-0.314 -22.295,0 Z"
             style="fill:#275ca7;fill-opacity:1;fill-rule:nonzero;stroke:none"
             id="path66" />
        </g>
        <g
           id="g68"
           transform="translate(255.9399,108.4399)">
          <path
             d="M 0,0 H 13.944 L 13.666,-1.874 H -2.503 L 1.54,25.124 h 2.224 z"
             style="fill:#1b355f;fill-opacity:1;fill-rule:nonzero;stroke:none"
             id="path70" />
        </g>
        <g
           id="g72"
           transform="translate(276.2813,116.2827)">
          <path
             d="m 0,0 c -0.371,-2.411 -0.091,-4.385 0.844,-5.924 0.932,-1.539 2.462,-2.308 4.589,-2.308 1.977,0 3.695,0.8 5.154,2.401 1.458,1.6 2.367,3.543 2.726,5.831 l 0.092,0.612 C 13.751,2.985 13.452,4.947 12.506,6.5 11.561,8.051 10.043,8.826 7.954,8.826 5.963,8.826 4.239,8.019 2.78,6.406 1.322,4.793 0.426,2.861 0.092,0.612 Z m -2.133,0.612 c 0.445,3.065 1.607,5.516 3.486,7.351 1.879,1.837 4.172,2.754 6.879,2.754 2.571,0 4.553,-0.954 5.943,-2.864 1.391,-1.911 1.869,-4.324 1.437,-7.241 L 15.52,0 c -0.471,-3.078 -1.642,-5.532 -3.514,-7.361 -1.874,-1.83 -4.157,-2.744 -6.852,-2.744 -2.584,0 -4.571,0.951 -5.961,2.855 -1.391,1.904 -1.863,4.321 -1.419,7.25 z"
             style="fill:#1b355f;fill-opacity:1;fill-rule:nonzero;stroke:none"
             id="path74" />
        </g>
        <g
           id="g76"
           transform="translate(297.8276,116.0415)">
          <path
             d="m 0,0 c -0.384,-2.497 -0.195,-4.444 0.565,-5.84 0.761,-1.397 2.123,-2.096 4.089,-2.096 1.359,0 2.574,0.325 3.643,0.974 1.07,0.649 1.969,1.529 2.698,2.642 l 1.427,9.53 C 12.088,6.335 11.51,7.253 10.689,7.964 9.867,8.675 8.72,9.03 7.25,9.03 5.371,9.03 3.794,8.217 2.521,6.592 1.248,4.966 0.426,2.899 0.055,0.389 Z m -2.17,0.389 c 0.495,3.326 1.551,5.919 3.17,7.779 1.621,1.86 3.654,2.79 6.101,2.79 1.372,0 2.543,-0.315 3.515,-0.945 0.968,-0.631 1.715,-1.52 2.233,-2.67 l 0.817,3.244 h 1.797 L 12.441,-9.586 c -0.407,-2.658 -1.408,-4.655 -3.003,-5.989 -1.595,-1.335 -3.696,-2.003 -6.305,-2.003 -0.94,0 -1.944,0.118 -3.013,0.352 -1.069,0.235 -1.981,0.557 -2.735,0.964 l 0.705,1.873 c 0.754,-0.396 1.57,-0.695 2.447,-0.899 0.879,-0.204 1.836,-0.306 2.875,-0.306 1.903,0 3.436,0.513 4.597,1.539 1.162,1.026 1.892,2.515 2.188,4.469 l 0.428,2.837 C 9.795,-7.75 8.819,-8.521 7.694,-9.058 6.569,-9.595 5.322,-9.864 3.949,-9.864 c -2.299,0 -4.018,0.905 -5.155,2.717 -1.137,1.81 -1.477,4.192 -1.02,7.147 z"
             style="fill:#1b355f;fill-opacity:1;fill-rule:nonzero;stroke:none"
             id="path78" />
        </g>
        <g
           id="g80"
           transform="translate(322.4697,132.377)">
          <path
             d="m 0,0 h -2.206 l 0.464,3.116 h 2.206 z m -3.875,-25.811 h -2.207 l 3.005,20.063 h 2.206 z"
             style="fill:#1b355f;fill-opacity:1;fill-rule:nonzero;stroke:none"
             id="path82" />
        </g>
        <g
           id="g84"
           transform="translate(337.5635,111.7031)">
          <path
             d="m 0,0 c 0.123,0.976 -0.148,1.805 -0.816,2.484 -0.668,0.68 -1.984,1.243 -3.95,1.688 -2.298,0.494 -3.967,1.171 -5.006,2.03 -1.039,0.859 -1.447,2.061 -1.224,3.607 0.224,1.594 1.045,2.907 2.467,3.94 1.421,1.032 3.207,1.548 5.358,1.548 2.15,0 3.835,-0.572 5.053,-1.715 C 3.1,12.438 3.565,11.051 3.281,9.419 L 3.245,9.308 H 1.168 c 0.16,1.137 -0.17,2.104 -0.992,2.901 -0.822,0.798 -2.025,1.196 -3.607,1.196 -1.545,0 -2.794,-0.358 -3.746,-1.074 -0.951,-0.717 -1.489,-1.533 -1.613,-2.448 -0.123,-0.952 0.118,-1.719 0.724,-2.3 0.605,-0.581 1.928,-1.1 3.968,-1.558 C -1.823,5.507 -0.148,4.783 0.927,3.856 2.002,2.93 2.435,1.681 2.225,0.111 1.966,-1.62 1.097,-2.992 -0.381,-4.005 c -1.476,-1.014 -3.341,-1.521 -5.591,-1.521 -2.335,0 -4.14,0.588 -5.414,1.761 -1.272,1.175 -1.76,2.553 -1.465,4.135 l 0.038,0.112 h 2.041 c -0.113,-1.447 0.335,-2.498 1.343,-3.152 1.007,-0.655 2.246,-0.983 3.718,-0.983 1.532,0 2.83,0.362 3.893,1.084 C -0.754,-1.845 -0.148,-0.99 0,0"
             style="fill:#1b355f;fill-opacity:1;fill-rule:nonzero;stroke:none"
             id="path86" />
        </g>
        <g
           id="g88"
           transform="translate(351.3213,131.7656)">
          <path
             d="M 0,0 -0.779,-5.137 H 3.634 L 3.375,-6.953 h -4.432 l -1.947,-13.072 c -0.21,-1.373 -0.117,-2.319 0.278,-2.837 0.396,-0.52 0.995,-0.779 1.799,-0.779 0.26,0 0.528,0.018 0.807,0.055 0.278,0.037 0.578,0.086 0.898,0.148 l 0.093,-1.65 c -0.333,-0.16 -0.723,-0.284 -1.167,-0.371 -0.446,-0.086 -0.885,-0.129 -1.317,-0.129 -1.361,0 -2.38,0.447 -3.06,1.343 -0.68,0.897 -0.871,2.303 -0.575,4.22 l 1.947,13.072 h -3.448 l 0.259,1.816 h 3.468 L -2.243,0 Z"
             style="fill:#1b355f;fill-opacity:1;fill-rule:nonzero;stroke:none"
             id="path90" />
        </g>
        <g
           id="g92"
           transform="translate(362.6504,132.377)">
          <path
             d="m 0,0 h -2.206 l 0.464,3.116 h 2.206 z m -3.875,-25.811 h -2.207 l 3.005,20.063 h 2.206 z"
             style="fill:#1b355f;fill-opacity:1;fill-rule:nonzero;stroke:none"
             id="path94" />
        </g>
        <g
           id="g96"
           transform="translate(372.4775,108.0503)">
          <path
             d="m 0,0 c 1.372,0 2.68,0.423 3.922,1.27 1.243,0.846 1.98,2.012 2.216,3.495 H 8.104 L 8.141,4.654 C 7.893,2.713 6.933,1.14 5.257,-0.066 3.582,-1.27 1.736,-1.873 -0.278,-1.873 c -2.571,0 -4.488,0.948 -5.748,2.846 -1.261,1.897 -1.669,4.293 -1.224,7.186 l 0.112,0.778 c 0.445,3.016 1.541,5.438 3.291,7.268 1.748,1.83 3.97,2.745 6.665,2.745 2.078,0 3.752,-0.655 5.026,-1.966 1.272,-1.31 1.73,-3.016 1.372,-5.117 L 9.179,11.773 H 7.177 c 0.247,1.67 -0.078,2.968 -0.975,3.895 -0.896,0.927 -2.116,1.39 -3.662,1.39 -2.015,0 -3.674,-0.784 -4.978,-2.354 -1.304,-1.571 -2.129,-3.493 -2.475,-5.767 L -5.024,8.159 C -5.396,5.723 -5.186,3.754 -4.395,2.252 -3.604,0.75 -2.139,0 0,0"
             style="fill:#1b355f;fill-opacity:1;fill-rule:nonzero;stroke:none"
             id="path98" />
        </g>
        <g
           id="g100"
           transform="translate(390.0186,108.1426)">
          <path
             d="M 0,0 C 1.632,0 3.146,0.408 4.543,1.224 5.939,2.04 6.96,3.071 7.603,4.32 L 8.196,8.177 H 3.245 C 1.515,8.177 -0.021,7.745 -1.362,6.879 -2.703,6.014 -3.467,4.981 -3.652,3.783 -3.825,2.608 -3.595,1.685 -2.957,1.01 -2.32,0.337 -1.335,0 0,0 M 7.14,-1.576 C 7.114,-0.81 7.103,-0.186 7.103,0.297 7.103,0.779 7.14,1.273 7.214,1.78 6.36,0.705 5.257,-0.188 3.904,-0.899 2.55,-1.61 1.069,-1.965 -0.537,-1.965 c -1.892,0 -3.319,0.527 -4.284,1.585 -0.964,1.057 -1.31,2.469 -1.037,4.236 0.271,1.867 1.269,3.338 2.994,4.414 1.723,1.076 3.853,1.613 6.387,1.613 h 4.933 l 0.371,2.485 c 0.21,1.495 -0.071,2.636 -0.844,3.42 -0.773,0.786 -2,1.178 -3.68,1.178 -1.459,0 -2.727,-0.374 -3.802,-1.121 -1.075,-0.749 -1.699,-1.678 -1.872,-2.791 h -2.04 l -0.037,0.111 c 0.16,1.558 1.004,2.895 2.531,4.015 1.526,1.118 3.396,1.677 5.609,1.677 2.125,0 3.791,-0.568 4.996,-1.705 1.207,-1.138 1.654,-2.745 1.345,-4.821 L 9.55,2.466 C 9.438,1.736 9.371,1.044 9.346,0.39 9.32,-0.266 9.357,-0.921 9.457,-1.576 Z"
             style="fill:#1b355f;fill-opacity:1;fill-rule:nonzero;stroke:none"
             id="path102" />
        </g>
        <g
           id="g104"
           transform="translate(417.4248,106.5664)">
          <path
             d="M 0,0 H -2.226 L 1.817,26.998 H 4.043 Z"
             style="fill:#1b355f;fill-opacity:1;fill-rule:nonzero;stroke:none"
             id="path106" />
        </g>
        <g
           id="g108"
           transform="translate(429.0508,123.2734)">
          <path
             d="m 0,0 c 0.828,1.199 1.832,2.12 3.013,2.763 1.18,0.642 2.525,0.964 4.033,0.964 2.101,0 3.641,-0.671 4.617,-2.012 0.977,-1.341 1.255,-3.409 0.835,-6.202 l -1.837,-12.22 H 8.437 l 1.835,12.201 c 0.346,2.386 0.17,4.033 -0.528,4.942 C 9.046,1.344 7.887,1.798 6.267,1.798 4.734,1.798 3.414,1.393 2.309,0.583 1.201,-0.226 0.321,-1.298 -0.334,-2.634 l -2.113,-14.073 h -2.225 l 3.003,20.062 h 1.966 z"
             style="fill:#1b355f;fill-opacity:1;fill-rule:nonzero;stroke:none"
             id="path110" />
        </g>
        <g
           id="g112"
           transform="translate(452.7656,131.7656)">
          <path
             d="M 0,0 -0.777,-5.137 H 3.635 L 3.376,-6.953 h -4.431 l -1.948,-13.072 c -0.209,-1.373 -0.116,-2.319 0.279,-2.837 0.394,-0.52 0.994,-0.779 1.798,-0.779 0.26,0 0.528,0.018 0.807,0.055 0.277,0.037 0.577,0.086 0.899,0.148 l 0.093,-1.65 c -0.333,-0.16 -0.724,-0.284 -1.17,-0.371 -0.443,-0.086 -0.884,-0.129 -1.316,-0.129 -1.359,0 -2.379,0.447 -3.059,1.343 -0.68,0.897 -0.871,2.303 -0.575,4.22 l 1.946,13.072 h -3.447 l 0.259,1.816 h 3.468 L -2.242,0 Z"
             style="fill:#1b355f;fill-opacity:1;fill-rule:nonzero;stroke:none"
             id="path114" />
        </g>
        <g
           id="g116"
           transform="translate(467.9336,125.1084)">
          <path
             d="M 0,0 C -1.632,0 -3.103,-0.618 -4.412,-1.854 -5.723,-3.09 -6.619,-4.635 -7.103,-6.49 l 0.038,-0.111 H 4.431 l 0.055,0.464 C 4.76,-4.296 4.52,-2.812 3.765,-1.687 3.01,-0.563 1.756,0 0,0 m -2.633,-18.931 c -2.497,0 -4.443,0.927 -5.841,2.781 -1.396,1.854 -1.879,4.203 -1.446,7.046 l 0.168,1.021 c 0.432,3.003 1.597,5.416 3.493,7.239 1.899,1.823 4.077,2.736 6.538,2.736 2.348,0 4.089,-0.791 5.219,-2.374 1.131,-1.582 1.504,-3.678 1.123,-6.286 L 6.36,-8.492 H -7.602 l -0.092,-0.612 c -0.359,-2.374 -0.071,-4.292 0.862,-5.757 0.933,-1.465 2.425,-2.197 4.477,-2.197 1.174,0 2.322,0.204 3.441,0.611 1.117,0.408 2.06,0.946 2.827,1.614 l 0.723,-1.521 c -0.816,-0.741 -1.833,-1.356 -3.051,-1.845 -1.217,-0.488 -2.623,-0.732 -4.218,-0.732"
             style="fill:#1b355f;fill-opacity:1;fill-rule:nonzero;stroke:none"
             id="path118" />
        </g>
        <g
           id="g120"
           transform="translate(480.1348,116.0415)">
          <path
             d="m 0,0 c -0.383,-2.497 -0.194,-4.444 0.565,-5.84 0.761,-1.397 2.124,-2.096 4.089,-2.096 1.36,0 2.575,0.325 3.645,0.974 1.069,0.649 1.969,1.529 2.697,2.642 l 1.429,9.53 C 12.09,6.335 11.511,7.253 10.689,7.964 9.868,8.675 8.721,9.03 7.25,9.03 5.372,9.03 3.796,8.217 2.523,6.592 1.248,4.966 0.427,2.899 0.055,0.389 Z m -2.169,0.389 c 0.494,3.326 1.551,5.919 3.171,7.779 1.619,1.86 3.652,2.79 6.1,2.79 1.371,0 2.544,-0.315 3.513,-0.945 0.97,-0.631 1.717,-1.52 2.235,-2.67 l 0.816,3.244 h 1.798 L 12.443,-9.586 c -0.409,-2.658 -1.41,-4.655 -3.005,-5.989 -1.594,-1.335 -3.696,-2.003 -6.304,-2.003 -0.941,0 -1.943,0.118 -3.012,0.352 -1.069,0.235 -1.983,0.557 -2.736,0.964 l 0.705,1.873 c 0.755,-0.396 1.568,-0.695 2.447,-0.899 0.879,-0.204 1.835,-0.306 2.873,-0.306 1.905,0 3.438,0.513 4.6,1.539 1.161,1.026 1.89,2.515 2.186,4.469 l 0.429,2.837 C 9.798,-7.75 8.82,-8.521 7.695,-9.058 6.571,-9.595 5.322,-9.864 3.949,-9.864 c -2.299,0 -4.016,0.905 -5.154,2.717 -1.138,1.81 -1.478,4.192 -1.019,7.147 z"
             style="fill:#1b355f;fill-opacity:1;fill-rule:nonzero;stroke:none"
             id="path122" />
        </g>
        <g
           id="g124"
           transform="translate(510.3047,124.7192)">
          <path
             d="m 0,0 -1.558,0.112 c -1.348,0 -2.542,-0.408 -3.58,-1.224 -1.038,-0.816 -1.859,-1.922 -2.466,-3.319 l -2.057,-13.722 h -2.226 L -8.884,1.91 h 1.948 l -0.223,-3.338 -0.019,-0.111 c 0.755,1.211 1.668,2.151 2.745,2.819 1.076,0.667 2.294,1.001 3.652,1.001 0.26,0 0.518,-0.021 0.77,-0.065 0.253,-0.043 0.455,-0.09 0.603,-0.139 z"
             style="fill:#1b355f;fill-opacity:1;fill-rule:nonzero;stroke:none"
             id="path126" />
        </g>
        <g
           id="g128"
           transform="translate(516.9424,108.1426)">
          <path
             d="M 0,0 C 1.632,0 3.146,0.408 4.542,1.224 5.938,2.04 6.96,3.071 7.602,4.32 L 8.195,8.177 H 3.245 C 1.514,8.177 -0.022,7.745 -1.363,6.879 -2.704,6.014 -3.467,4.981 -3.653,3.783 -3.825,2.608 -3.597,1.685 -2.958,1.01 -2.321,0.337 -1.336,0 0,0 M 7.138,-1.576 C 7.113,-0.81 7.101,-0.186 7.101,0.297 7.101,0.779 7.138,1.273 7.212,1.78 6.36,0.705 5.256,-0.188 3.903,-0.899 2.55,-1.61 1.069,-1.965 -0.538,-1.965 c -1.893,0 -3.319,0.527 -4.283,1.585 -0.966,1.057 -1.31,2.469 -1.039,4.236 0.273,1.867 1.27,3.338 2.995,4.414 1.723,1.076 3.853,1.613 6.387,1.613 h 4.933 l 0.37,2.485 c 0.211,1.495 -0.07,2.636 -0.844,3.42 -0.773,0.786 -1.998,1.178 -3.679,1.178 -1.46,0 -2.726,-0.374 -3.802,-1.121 -1.075,-0.749 -1.698,-1.678 -1.872,-2.791 h -2.039 l -0.037,0.111 c 0.159,1.558 1.003,2.895 2.531,4.015 1.524,1.118 3.395,1.677 5.608,1.677 2.124,0 3.791,-0.568 4.996,-1.705 1.207,-1.138 1.654,-2.745 1.345,-4.821 L 9.55,2.466 C 9.438,1.736 9.369,1.044 9.345,0.39 9.32,-0.266 9.357,-0.921 9.456,-1.576 Z"
             style="fill:#1b355f;fill-opacity:1;fill-rule:nonzero;stroke:none"
             id="path130" />
        </g>
        <g
           id="g132"
           transform="translate(539.0449,131.7656)">
          <path
             d="M 0,0 -0.779,-5.137 H 3.633 L 3.374,-6.953 h -4.433 l -1.946,-13.072 c -0.211,-1.373 -0.118,-2.319 0.277,-2.837 0.397,-0.52 0.997,-0.779 1.801,-0.779 0.259,0 0.528,0.018 0.805,0.055 0.279,0.037 0.579,0.086 0.9,0.148 l 0.093,-1.65 c -0.335,-0.16 -0.724,-0.284 -1.169,-0.371 -0.444,-0.086 -0.885,-0.129 -1.315,-0.129 -1.36,0 -2.381,0.447 -3.06,1.343 -0.681,0.897 -0.872,2.303 -0.576,4.22 l 1.948,13.072 h -3.45 l 0.261,1.816 h 3.467 L -2.244,0 Z"
             style="fill:#1b355f;fill-opacity:1;fill-rule:nonzero;stroke:none"
             id="path134" />
        </g>
        <g
           id="g136"
           transform="translate(549.5771,108.1426)">
          <path
             d="M 0,0 C 1.632,0 3.145,0.408 4.542,1.224 5.938,2.04 6.958,3.071 7.602,4.32 L 8.195,8.177 H 3.245 C 1.513,8.177 -0.022,7.745 -1.363,6.879 -2.705,6.014 -3.469,4.981 -3.654,3.783 -3.828,2.608 -3.595,1.685 -2.958,1.01 -2.322,0.337 -1.336,0 0,0 m 7.138,-1.576 c -0.025,0.766 -0.037,1.39 -0.037,1.873 0,0.482 0.037,0.976 0.11,1.483 C 6.358,0.705 5.256,-0.188 3.901,-0.899 2.549,-1.61 1.067,-1.965 -0.538,-1.965 c -1.892,0 -3.319,0.527 -4.283,1.585 -0.966,1.057 -1.312,2.469 -1.04,4.236 0.272,1.867 1.271,3.338 2.995,4.414 1.724,1.076 3.853,1.613 6.388,1.613 h 4.932 l 0.37,2.485 c 0.211,1.495 -0.07,2.636 -0.844,3.42 -0.771,0.786 -1.999,1.178 -3.679,1.178 -1.459,0 -2.725,-0.374 -3.802,-1.121 -1.074,-0.749 -1.7,-1.678 -1.872,-2.791 h -2.04 l -0.037,0.111 c 0.161,1.558 1.004,2.895 2.53,4.015 1.528,1.118 3.397,1.677 5.609,1.677 2.126,0 3.793,-0.568 4.998,-1.705 1.206,-1.138 1.654,-2.745 1.344,-4.821 L 9.548,2.466 C 9.437,1.736 9.368,1.044 9.345,0.39 9.32,-0.266 9.357,-0.921 9.455,-1.576 Z"
             style="fill:#1b355f;fill-opacity:1;fill-rule:nonzero;stroke:none"
             id="path138" />
        </g>
      </g>
    </g>
  </g>
</svg>
